<svg xmlns="http://www.w3.org/2000/svg" viewBox="0 0 512 512">
  <defs>
    <linearGradient id="g" x1="0%" y1="0%" x2="100%" y2="100%">
      <stop offset="0%" style="stop-color:#1A1A1A;stop-opacity:1" />
      <stop offset="100%" style="stop-color:#000000;stop-opacity:1" />
    </linearGradient>
     <filter id="shadow" x="-20%" y="-20%" width="140%" height="140%">
      <feDropShadow dx="0" dy="4" stdDeviation="4" flood-color="#000000" flood-opacity="0.5"/>
    </filter>
  </defs>
  
  <!-- Dark Squircle Background -->
  <path d="M256,0C114.6,0,0,114.6,0,256S114.6,512,256,512,512,397.4,512,256,397.4,0,256,0Z" fill="url(#g)"/>
  
  <!-- Content -->
  <g transform="translate(0, 20)">
      
      <!-- Row 1 -->
      
      <!-- Key 1 (Top Left): H -->
      <rect x="136" y="130" width="70" height="70" rx="16" fill="#424242" opacity="0.9"/>
      <text x="171" y="177" font-family="sans-serif" font-weight="bold" font-size="40" fill="#FFFFFF" text-anchor="middle">H</text>
      
      <!-- Key 2 (Top Center): Purple Key -->
      <rect x="221" y="130" width="70" height="70" rx="16" fill="#7C4DFF" filter="url(#shadow)"/>
      
      <!-- Key 3 (Top Right): Proofread Icon -->
      <rect x="306" y="130" width="70" height="70" rx="16" fill="#424242" opacity="0.9"/>
      <g transform="translate(306, 130)">
         <!-- Sparkle -->
         <path d="M35,15 L38,28 L51,31 L38,34 L35,47 L32,34 L19,31 L32,28 Z" fill="#FFFFFF"/>
         <circle cx="50" cy="20" r="3" fill="#FFFFFF"/>
         <circle cx="20" cy="50" r="2" fill="#FFFFFF"/>
      </g>

      
      <!-- Row 2 -->
      
      <!-- Key 4 (Mid Left): Purple Key (Moved from Center) -->
      <rect x="136" y="215" width="70" height="70" rx="16" fill="#7C4DFF" filter="url(#shadow)"/>

      <!-- Key 5 (Mid Center): Translate Icon (Moved from Left) -->
      <rect x="221" y="215" width="70" height="70" rx="16" fill="#424242" opacity="0.9"/>
       <g transform="translate(221, 215) scale(2.0) translate(5, 5)">
          <path d="M12.87,15.07l-2.54,-2.51 0.03,-0.03c1.74,-1.94 2.98,-4.17 3.71,-6.53L17,6L17,4h-7L10,2L8,2v2L1,4v1.99h11.17C11.5,7.92 10.44,9.75 9,11.35 8.07,10.32 7.3,9.19 6.69,8h-2c0.73,1.63 1.73,3.17 2.98,4.56l-5.09,5.02L4,19l5,-5 3.11,3.11 0.76,-2.04zM18.5,10h-2L12,22h2l1.12,-3h4.75L21,22h2l-4.5,-12zM15.88,17l1.62,-4.33L19.12,17h-3.24z" fill="#FFFFFF"/>
      </g>
      
      <!-- Key 6 (Mid Right): L -->
      <rect x="306" y="215" width="70" height="70" rx="16" fill="#424242" opacity="0.9"/>
       <text x="341" y="262" font-family="sans-serif" font-weight="bold" font-size="40" fill="#FFFFFF" text-anchor="middle">L</text>
      
      <!-- Row 3 (Spacebar/Incognito) -->
      <rect x="160" y="300" width="192" height="70" rx="16" fill="#424242" opacity="0.9"/>
      
      <!-- Incognito Icon - Centered relative to Spacebar (x=160, w=192 -> Center=256) -->
      <!-- Adjusted path coordinates to be sure they are visible -->
      <g transform="translate(256, 335) scale(0.8)"> 
        <!-- Hat: Top part -->
        <path d="M-20,-10 L20,-10 L15,-25 L-15,-25 Z" fill="#FFFFFF"/>
        <!-- Hat: Brim -->
        <path d="M-30,-10 L30,-10 L30,-5 L-30,-5 Z" fill="#FFFFFF"/>
        
        <!-- Glasses -->
        <g stroke="#FFFFFF" stroke-width="3" fill="none">
             <circle cx="-12" cy="10" r="8" />
             <circle cx="12" cy="10" r="8" />
             <path d="M-4,10 Q0,5 4,10" stroke-width="2"/> <!-- Bridge -->
             <path d="M-20,10 L-25,5" stroke-width="2"/> <!-- Side Frame Left -->
             <path d="M20,10 L25,5" stroke-width="2"/> <!-- Side Frame Right -->
        </g>
      </g>
  </g>
</svg>
